<svg xmlns="http://www.w3.org/2000/svg" viewBox="0 0 999.04 130.13"><defs><style>.cls-1{fill:none;stroke:#000;stroke-width:6px;}</style></defs><title>자산 1</title><g id="레이어_2" data-name="레이어 2"><g id="레이어_1-2" data-name="레이어 1"><path class="cls-1" d="M3,3H56.54V27.33H34.61V50.38H54.14V73.51H34.61v51.07H3Z"/><path class="cls-1" d="M79.58,3H132.3V27.33H111.2V50.38H131V73.51H111.2v26.74h23.2v24.33H79.58Z"/><path class="cls-1" d="M271.94,3V124.58H244.23L227.79,69.31v55.27H201.35V3h26.44l17.72,54.74V3Z"/><path class="cls-1" d="M300,3h52.72V27.33h-21.1V50.38h19.75V73.51H331.63v26.74h23.2v24.33H300Z"/><path class="cls-1" d="M498.32,3,484.25,124.58H444.78q-5.43-28-9.57-63.76-1.89,15.33-8.82,63.76H387.14L373,3H403.7l3.35,42.42,3.23,41Q412,54.6,419,3h32.83q.64,5.32,3.44,40.1l3.5,46.26Q461.48,45.22,467.61,3Z"/><path class="cls-1" d="M583.62,3V27.33H564.84v97.25H533.23V27.33h-18.7V3Z"/><path class="cls-1" d="M678.07,3V84.25q0,13.81-.9,19.41a26.33,26.33,0,0,1-5.33,11.49,27.75,27.75,0,0,1-11.68,8.94,43.91,43.91,0,0,1-17.08,3,48.15,48.15,0,0,1-19.23-3.6q-8.33-3.61-12.46-9.39a25.9,25.9,0,0,1-4.88-12.2q-.76-6.42-.76-27V3h31.62V94.16q0,8,.86,10.18a3.39,3.39,0,0,0,3.49,2.22q3,0,3.87-2.45t.87-11.52V3Z"/><path class="cls-1" d="M705.69,3h31.54q14.94,0,22.64,2.33a22.46,22.46,0,0,1,12.43,9.41Q777,21.83,777,37.59q0,10.67-3.34,14.86t-13.18,6.46q11,2.48,14.87,8.23t3.9,17.62V96q0,12.31-2.81,18.25a15.18,15.18,0,0,1-9,8.12q-6.15,2.17-25.23,2.18H705.69Zm31.62,20.8v27c1.35-.05,2.4-.08,3.15-.08q4.65,0,5.93-2.29t1.28-13.1c0-3.81-.35-6.47-1-8a5,5,0,0,0-2.74-2.89A24.37,24.37,0,0,0,737.31,23.8Zm0,46v34q6.68-.23,8.52-2.11c1.22-1.25,1.84-4.33,1.84-9.23V81.1q0-7.81-1.65-9.46T737.31,69.76Z"/><path class="cls-1" d="M806,3h52.72V27.33h-21.1V50.38h19.75V73.51H837.62v26.74h23.2v24.33H806Z"/><path d="M993.11,3V22.45H955.49V43.1a22.7,22.7,0,0,1,18.17-8.33q12.54,0,19,7t6.42,27V86.13q0,12.91-1.24,19a26.59,26.59,0,0,1-5.29,11.19,25.49,25.49,0,0,1-11.3,7.89,50.42,50.42,0,0,1-17.69,2.74,49.1,49.1,0,0,1-20.65-4.1,24.61,24.61,0,0,1-12.69-12.2q-3.76-8.11-3.76-25.08V78.92h30.34v7.59a116,116,0,0,0,.83,16.74q.82,5,5.7,5a5.05,5.05,0,0,0,5.15-4.51q.1-1.65.26-14.34V65.25c0-4.55-.47-7.66-1.42-9.31a5,5,0,0,0-4.74-2.48A5.13,5.13,0,0,0,959,54.74a5.87,5.87,0,0,0-1.84,2.74,33.62,33.62,0,0,0-.41,6.8h-30L928,3Z"/></g></g></svg>