<svg xmlns="http://www.w3.org/2000/svg" viewBox="0 0 185.24 57.24"><defs><style>.cls-1{fill:#403f41;}</style></defs><title>자산 1</title><g id="레이어_2" data-name="레이어 2"><g id="유튜브"><path class="cls-1" d="M32.07,55.42a9.94,9.94,0,0,1-3.84-5.66,37,37,0,0,1-1.14-10.21V33.76a33.75,33.75,0,0,1,1.3-10.34,10.38,10.38,0,0,1,4.07-5.7,13.17,13.17,0,0,1,7.25-1.78,12.32,12.32,0,0,1,7.09,1.82,10.38,10.38,0,0,1,3.9,5.69,34.64,34.64,0,0,1,1.24,10.31v5.79a35.55,35.55,0,0,1-1.2,10.24,10.09,10.09,0,0,1-3.91,5.66,13.11,13.11,0,0,1-7.31,1.79A13.22,13.22,0,0,1,32.07,55.42Zm10.08-6.25a19.35,19.35,0,0,0,.75-6.37V30.38a19.13,19.13,0,0,0-.75-6.28,2.68,2.68,0,0,0-2.63-2,2.63,2.63,0,0,0-2.57,2,19.13,19.13,0,0,0-.75,6.28V42.8a20.47,20.47,0,0,0,.71,6.37,2.63,2.63,0,0,0,2.61,1.95A2.67,2.67,0,0,0,42.15,49.17Z"/><path class="cls-1" d="M170.21,39.64v2a53.31,53.31,0,0,0,.23,5.75,5.52,5.52,0,0,0,.94,2.8,2.69,2.69,0,0,0,2.22.88,2.78,2.78,0,0,0,2.76-1.56,13.53,13.53,0,0,0,.81-5.21l7.74.46a10.72,10.72,0,0,1,.07,1.43q0,5.53-3,8.26T173.4,57.2q-6.63,0-9.3-4.16t-2.67-12.88v-7q0-9,2.77-13.1T173.66,16q4.62,0,7.09,1.69a9,9,0,0,1,3.48,5.27,38.1,38.1,0,0,1,1,9.88v6.83Zm1.14-16.78a5.53,5.53,0,0,0-.91,2.76,54.51,54.51,0,0,0-.23,5.83v2.86h6.57V31.45a47.24,47.24,0,0,0-.26-5.83,5.56,5.56,0,0,0-.94-2.79,2.62,2.62,0,0,0-2.11-.82A2.58,2.58,0,0,0,171.35,22.86Z"/><path class="cls-1" d="M10.21,38.89,0,2H8.91l3.58,16.71q1.37,6.18,2,10.54h.26q.47-3.12,2-10.47L20.49,2H29.4L19.06,38.89v17.7H10.21Z"/><path class="cls-1" d="M80.92,16.72V56.59h-7l-.78-4.88h-.19q-2.86,5.53-8.59,5.53a6.76,6.76,0,0,1-5.85-2.6Q56.59,52,56.59,46.51V16.72h9V46a9,9,0,0,0,.58,3.8,2,2,0,0,0,2,1.14,4,4,0,0,0,2.24-.72,4.28,4.28,0,0,0,1.59-1.82V16.72Z"/><path class="cls-1" d="M127,16.72V56.59h-7l-.79-4.88H119q-2.86,5.53-8.59,5.53a6.76,6.76,0,0,1-5.85-2.6q-1.89-2.61-1.89-8.13V16.72h9V46a9,9,0,0,0,.58,3.8,2,2,0,0,0,2,1.14,4,4,0,0,0,2.24-.72A4.28,4.28,0,0,0,118,48.39V16.72Z"/><path class="cls-1" d="M105.31,9.24H96.4V56.59H87.62V9.24H78.71V2h26.6Z"/><path class="cls-1" d="M156.67,23.09A10.24,10.24,0,0,0,154,17.63a7.05,7.05,0,0,0-5-1.69,8.3,8.3,0,0,0-4.61,1.39A9.48,9.48,0,0,0,141.09,21H141V0h-8.65V56.59h7.42l.91-3.78h.19A7.63,7.63,0,0,0,144,56a9.21,9.21,0,0,0,4.61,1.17,7.07,7.07,0,0,0,6.7-4.19q2.14-4.2,2.15-13.11V33.56A52.58,52.58,0,0,0,156.67,23.09Zm-8.23,16.26a50,50,0,0,1-.36,6.83,7.4,7.4,0,0,1-1.2,3.51,2.79,2.79,0,0,1-2.28,1.05,4.15,4.15,0,0,1-2-.53A3.83,3.83,0,0,1,141,48.65V26a5.85,5.85,0,0,1,1.56-2.67,3.47,3.47,0,0,1,2.41-1,2.41,2.41,0,0,1,2.11,1.08A8.21,8.21,0,0,1,148.15,27a68.69,68.69,0,0,1,.29,7.21Z"/></g></g></svg>